<svg width="50" height="50" viewBox="0 0 50 50" fill="none" xmlns="http://www.w3.org/2000/svg"><rect fill="#c1f07c" width="50" height="50" rx="25"/><path fill-rule="evenodd" clip-rule="evenodd" d="M25 45C36.046 45 45 36.046 45 25C45 13.954 36.046 5 25 5C24.665 5 24.331 5.008 24 5.025V15.049C18.947 15.551 15 19.815 15 25C15 30.185 18.947 34.449 24 34.95V44.975C24.331 44.992 24.665 45 25 45ZM27 41.884C35.446 40.894 42 33.712 42 25C42 16.288 35.446 9.106 27 8.116V15.2C31.564 16.127 35 20.162 35 25C35 29.838 31.564 33.873 27 34.8V41.884ZM10.533 11.19C6.97547 14.9067 4.99289 19.8551 5.00002 25C5.00002 29.74 6.65002 34.096 9.40502 37.523L11.541 35.387C9.23989 32.414 7.99404 28.7595 8.00002 25C8.00002 20.473 9.77002 16.359 12.655 13.312L10.533 11.19ZM31.5 24.75C31.5 25.6364 31.3254 26.5142 30.9862 27.3331C30.647 28.1521 30.1498 28.8962 29.523 29.523C28.8962 30.1498 28.1521 30.647 27.3331 30.9862C26.5142 31.3254 25.6364 31.5 24.75 31.5C23.8636 31.5 22.9858 31.3254 22.1669 30.9862C21.348 30.647 20.6038 30.1498 19.977 29.523C19.3502 28.8962 18.853 28.1521 18.5138 27.3331C18.1746 26.5142 18 25.6364 18 24.75C18 22.9598 18.7112 21.2429 19.977 19.977C21.2429 18.7112 22.9598 18 24.75 18C26.5402 18 28.2571 18.7112 29.523 19.977C30.7888 21.2429 31.5 22.9598 31.5 24.75V24.75Z" fill="black"/></svg>
